<?xml version="1.0" standalone="no"?>
<!DOCTYPE svg PUBLIC "-//W3C//DTD SVG 20010904//EN"
 "http://www.w3.org/TR/2001/REC-SVG-20010904/DTD/svg10.dtd">
<svg version="1.0" xmlns="http://www.w3.org/2000/svg"
 width="96.000000pt" height="96.000000pt" viewBox="0 0 96.000000 96.000000"
 preserveAspectRatio="xMidYMid meet">
<metadata>
Created by potrace 1.11, written by Peter Selinger 2001-2013
</metadata>
<g transform="translate(0.000000,96.000000) scale(0.100000,-0.100000)"
fill="#000000" stroke="none">
<path d="M420 940 c0 -3 -21 -6 -46 -6 -65 -2 -202 -72 -269 -138 -74 -72 -98
-138 -101 -281 -3 -123 8 -200 38 -258 46 -91 168 -189 280 -226 73 -23 161
-37 138 -21 -9 6 -10 10 -3 10 6 0 15 -5 19 -11 8 -13 84 -5 142 15 79 28 229
137 216 157 -2 4 1 11 7 15 8 4 9 3 5 -4 -4 -7 -3 -12 2 -12 31 0 112 193 112
267 -1 220 -171 426 -400 486 -35 9 -64 11 -78 6 -13 -5 -21 -5 -18 0 3 5 -5
8 -19 7 -14 0 -25 -3 -25 -6z m188 -66 c40 -13 78 -22 83 -18 5 3 8 1 7 -4 -2
-5 25 -30 59 -56 78 -57 117 -111 144 -195 30 -98 31 -145 2 -226 -33 -93 -66
-148 -119 -201 -137 -135 -341 -170 -507 -87 -26 13 -53 21 -60 17 -7 -4 -9
-4 -5 1 4 4 -21 38 -56 76 -82 86 -129 181 -130 259 -2 110 14 162 76 253 55
81 138 164 185 184 85 37 207 35 321 -3z m9 20 c-3 -3 -12 -4 -19 -1 -8 3 -5
6 6 6 11 1 17 -2 13 -5z m58 -24 c3 -6 -1 -7 -9 -4 -18 7 -21 14 -7 14 6 0 13
-4 16 -10z m-524 -90 c-28 -33 -56 -70 -62 -81 -6 -11 -13 -18 -16 -15 -15 14
97 156 123 156 2 0 -18 -27 -45 -60z m-67 -36 c-10 -14 -28 -56 -40 -92 -12
-37 -23 -59 -23 -50 -2 34 58 168 74 168 3 0 -2 -12 -11 -26z m863 -306 c-3
-7 -5 -2 -5 12 0 14 2 19 5 13 2 -7 2 -19 0 -25z m-24 -80 c-5 -28 -40 -98
-48 -98 -1 0 9 29 23 65 14 36 27 65 29 65 1 0 0 -15 -4 -32z m-768 -200 c28
-29 39 -44 25 -33 -29 23 -38 33 -64 63 -36 42 -10 22 39 -30z m525 -82 c0 -2
-7 -7 -16 -10 -8 -3 -12 -2 -9 4 6 10 25 14 25 6z"/>
<path d="M540 756 c0 -7 -13 -29 -28 -49 -16 -19 -53 -87 -82 -150 l-55 -115
-50 -14 c-57 -15 -65 -36 -22 -56 16 -8 27 -19 24 -25 -28 -77 -30 -88 -20
-98 17 -17 29 -5 64 61 26 50 37 61 64 66 67 12 70 8 70 -89 0 -67 4 -90 15
-97 19 -12 39 13 41 49 1 14 3 40 4 56 2 17 3 45 4 63 1 35 4 37 64 47 49 8
43 27 -12 38 l-43 8 6 40 c23 167 25 257 4 270 -20 13 -48 11 -48 -5z m-16
-173 c-4 -33 -12 -103 -13 -120 -1 -12 -61 -20 -61 -8 0 7 71 155 75 155 2 0
1 -12 -1 -27z"/>
</g>
</svg>
